<?xml version="1.0" encoding="UTF-8" standalone="no"?>
<!DOCTYPE svg PUBLIC "-//W3C//DTD SVG 1.1//EN" "http://www.w3.org/Graphics/SVG/1.1/DTD/svg11.dtd">
<svg width="100%" height="100%" viewBox="0 0 1070 452" version="1.1" xmlns="http://www.w3.org/2000/svg" xmlns:xlink="http://www.w3.org/1999/xlink" xml:space="preserve" xmlns:serif="http://www.serif.com/" style="fill-rule:evenodd;clip-rule:evenodd;stroke-linejoin:round;stroke-miterlimit:2;">
    <g transform="matrix(1.02948,0,0,1.12366,-14.2283,-18.4141)">
        <clipPath id="_clip1">
            <rect x="13.821" y="16.388" width="1039.36" height="413.034"/>
        </clipPath>
        <g clip-path="url(#_clip1)">
            <path d="M1070,452L73.8,451.9C4.432,484.692 -30.773,455.978 2.4,380.5C-29.039,280.007 -61.644,179.607 2.4,71.5C-42.271,-4.535 -2.44,-30.278 73.8,0.1L1070,0" style="fill:rgb(255,221,0);fill-rule:nonzero;"/>
        </g>
    </g>
    <path d="M464.5,325.4C479,322.5 498.3,325 498.3,325C499.6,325.2 500.7,326.4 500.7,327.7L500.7,334.6C500.7,335.9 499.7,336.8 498.4,336.6C498.4,336.6 482,333.7 467.9,336.5C460.8,337.9 454.3,340 447.4,342.2C435.3,346.1 422.8,350 407.3,350C392.4,350 379.7,346 367.4,342.2C360.3,340 353.7,337.9 346.6,336.5C332.5,333.7 316.1,336.6 316.1,336.6C314.8,336.8 313.8,335.9 313.8,334.6L313.8,327.7C313.8,326.4 314.9,325.2 316.2,325C316.2,325 335.4,322.5 350,325.4C358,327 365.4,329.3 372.6,331.5C384.2,335.1 395.1,338.5 407.5,338.5C420.3,338.5 431,335.1 442.4,331.5C449.2,329.2 456.5,326.9 464.5,325.4M464.5,354.7C456.5,356.3 449.2,358.6 442.2,360.8C430.8,364.4 420.1,367.8 407.3,367.8C395,367.8 384,364.4 372.4,360.8C365.2,358.6 357.8,356.2 349.8,354.7C335.3,351.8 316,354.3 316,354.3C314.7,354.5 313.6,355.7 313.6,357L313.6,363.9C313.6,365.2 314.6,366.1 315.9,365.9C315.9,365.9 332.2,363 346.4,365.8C353.5,367.2 360.2,369.3 367.2,371.5C379.5,375.4 392.2,379.3 407.1,379.3C422.6,379.3 435.1,375.3 447.2,371.5C454.1,369.3 460.6,367.2 467.7,365.8C481.7,363 498.2,365.9 498.2,365.9C499.5,366.1 500.5,365.2 500.5,363.9L500.5,357C500.5,355.7 499.4,354.5 498.1,354.3C498.3,354.2 479.1,351.8 464.5,354.7M572.6,74.4L568.6,74.4C567.4,74.4 566.4,75.4 566.4,76.6L566.4,117.5L544.7,76.3C543.9,74.9 543.2,74.4 540.9,74.4L537,74.4C535.3,74.4 534,75.7 534,77.3L534,129.8C534,130.4 534.3,131.5 536.1,131.5L540,131.5C541.2,131.5 542.2,130.5 542.2,129.3L542.2,88.3L564.1,129.8C564.6,130.9 565.7,131.4 567.2,131.4L571.8,131.4C573.4,131.4 574.8,130.1 574.8,128.5L574.8,76.6C574.8,75.3 573.8,74.4 572.6,74.4M612.3,131.8L615.7,131.8C617.2,131.8 618.4,130.6 618.4,129.1L618.4,103C618.4,92.9 613.1,87.8 602.6,87.8C597.4,87.8 593.8,88.3 590.9,88.8C588.6,89.1 588.3,90.7 588.3,91.4L588.3,94C588.3,95.5 589.3,96.4 590.8,96.4L591.3,96.4C594.2,96.1 597.8,95.8 602.6,95.8C607.8,95.8 609.4,97.5 609.4,103L609.4,104.8L605.1,104.8C591.8,104.8 585.9,108.9 585.9,118.1L585.9,119C585.9,127.6 590.7,132.3 599.3,132.3C602.6,132.3 605.9,131.4 609.6,129.5C609.8,130.8 610.9,131.8 612.3,131.8M594.9,118.1C594.9,113.8 596.3,112 605.1,112L609.4,112L609.4,122.1C606,123.9 603.3,124.6 600.5,124.6C596.8,124.6 594.8,123.7 594.8,119L594.8,118.1L594.9,118.1ZM650,132C648.5,132.2 646.5,132.4 645,132.4C638,132.4 633.7,130.5 633.7,121.2L633.7,96.2L627.5,95.5C626,95.4 625,94.3 625,93L625,91C625,89.5 626.1,88.5 627.6,88.5L633.7,88.5L633.7,82.4C633.7,81.1 634.6,80 636,79.7L639.9,79.1C641.6,79.1 642.6,80.2 642.6,81.5L642.6,88.4L649.5,88.4C651,88.4 652.2,89.6 652.2,91.1L652.2,93.7C652.2,95.2 651,96.4 649.5,96.4L642.6,96.4L642.6,121.3C642.6,124.8 643.2,124.8 645.4,124.8L649.6,124.8C652.1,124.8 652.4,126.4 652.4,127L652.4,129.6C652.3,130.2 652.1,131.6 650,132M691.8,88.4C693.2,88.4 694.4,89.6 694.4,91.1L694.4,129.2C694.4,130.7 693.2,131.9 691.8,131.9L688.1,131.9C686.8,131.9 685.8,131 685.5,129.8C681.7,131.7 678.6,132.5 674.8,132.5C668.3,132.5 660.6,129.6 660.6,115.8L660.6,91.1C660.6,89.6 661.8,88.4 663.3,88.4L666.9,88.4C668.4,88.4 669.6,89.6 669.6,91.1L669.6,115.7C669.6,123 672,124.4 676.6,124.4C679.1,124.4 682.1,123.6 685.5,121.9L685.5,91.1C685.5,89.7 686.7,88.4 688.2,88.4L691.8,88.4M708.5,131.8C707.1,131.8 705.9,130.6 705.9,129.1L705.9,91.1C705.9,89.6 707.1,88.4 708.5,88.4L712,88.4C713.3,88.4 714.3,89.3 714.6,90.5C717.7,88.7 720.8,87.9 724,87.9C726,87.9 726.8,89.2 726.8,90.4L726.8,93.5C726.8,94.6 726.1,96 724,96C720.9,96 718.1,96.8 714.9,98.6L714.9,129.2C714.9,130.6 713.7,131.9 712.2,131.9L708.5,131.8M769.2,112.9L769.2,107.5C769.2,95 762.8,87.9 751.7,87.9C747.4,87.9 742.2,88.6 737.7,89.7C735.9,90.1 735.2,90.9 735.2,92.6L735.2,144C735.2,145.5 736.3,146.6 737.7,146.6L741.5,146.6C742.9,146.6 744.1,145.4 744.1,144L744.1,131.9C746.9,132.3 749.8,132.5 751.6,132.5C763,132.4 769.2,125.4 769.2,112.9M744.1,96.3C746.1,96 749,95.7 751.6,95.7C757.6,95.7 760.1,99.2 760.1,107.4L760.1,112.8C760.1,121 757.6,124.4 751.6,124.4C749.7,124.4 746.5,124.2 744.1,123.8L744.1,96.3ZM794.6,87.9C789.3,87.9 785.8,88.4 782.9,88.9C780.6,89.2 780.3,90.8 780.3,91.5L780.3,94C780.3,95.5 781.3,96.4 782.8,96.4L783.3,96.4C786.2,96.1 789.8,95.8 794.6,95.8C799.8,95.8 801.4,97.5 801.4,103L801.4,104.8L797,104.8C783.7,104.8 777.8,108.9 777.8,118.1L777.8,119C777.8,127.6 782.6,132.3 791.2,132.3C794.5,132.3 797.8,131.4 801.5,129.5C801.7,130.8 802.8,131.8 804.2,131.8L807.6,131.8C809.1,131.8 810.3,130.6 810.3,129.1L810.3,103C810.3,93 805,87.9 794.6,87.9M786.8,118.1C786.8,113.8 788.2,112 797,112L801.3,112L801.3,122.1C797.9,123.9 795.2,124.6 792.4,124.6C788.7,124.6 786.7,123.7 786.7,119L786.7,118.1L786.8,118.1ZM839.9,87.9C841.9,87.9 842.7,89.2 842.7,90.4L842.7,93.5C842.7,94.6 842,96 839.9,96C836.7,96 834,96.8 830.8,98.6L830.8,129.2C830.8,130.6 829.6,131.9 828.1,131.9L824.5,131.9C823.1,131.9 821.9,130.7 821.9,129.2L821.9,91.1C821.9,89.6 823.1,88.4 824.5,88.4L828,88.4C829.3,88.4 830.3,89.3 830.5,90.5C833.5,88.7 836.6,87.9 839.9,87.9M882.8,90.4C882.8,91 882.6,91.6 882.1,92.1L866.4,109.1L882.3,128.3C882.6,128.7 882.8,129.3 882.8,129.7C882.8,130.9 881.9,131.9 880.8,131.9L875.4,131.9C874.1,131.9 873.5,131.4 872.7,130.5L860,114.7L860,129.2C860,130.7 858.8,131.9 857.3,131.9L853.7,131.9C852.2,131.9 851,130.7 851,129.2L851,76C851,74.5 852.2,73.3 853.7,73.3L857.3,73.3C858.8,73.3 860,74.5 860,76L860,103.9L872.9,89.4C873.6,88.6 874.2,88.3 875.3,88.3L880.5,88.3C882,88.4 882.8,89.4 882.8,90.4M555.3,156L551,156C539.1,156 533.7,161.1 533.7,172.6L533.7,211.7C533.7,213.1 534.9,214.4 536.2,214.4L540.3,214.4C541.7,214.4 542.8,213.2 542.8,211.7L542.8,190.8L563.3,190.8L563.3,211.7C563.3,213.2 564.4,214.4 565.8,214.4L569.9,214.4C571.3,214.4 572.4,213.2 572.4,211.7L572.4,172.6C572.5,161.2 567.2,156 555.3,156M542.8,172.7C542.8,165.6 544.7,164.4 550.9,164.4L555.2,164.4C561.4,164.4 563.3,165.5 563.3,172.7L563.3,182.5L542.8,182.5L542.8,172.7ZM591.9,155.9C593.3,155.9 594.4,157 594.4,158.5L594.4,211.7C594.4,213.2 593.3,214.4 591.9,214.4L588,214.4C586.6,214.4 585.5,213.2 585.5,211.7L585.5,158.5C585.5,157 586.6,155.9 588,155.9L591.9,155.9M628.1,207.3C630.6,207.3 630.9,208.9 630.9,209.5L630.9,212.1C630.9,212.7 630.7,214.2 628.6,214.5C627.1,214.7 625.1,214.9 623.6,214.9C616.6,214.9 612.3,213 612.3,203.7L612.3,178.7L606,178C604.5,177.9 603.5,176.8 603.5,175.5L603.5,173.5C603.5,172.1 604.6,171 606.1,171L612.1,171L612.1,164.9C612.1,163.6 613,162.5 614.4,162.2L618.3,161.6C620,161.6 621,162.7 621,164L621,170.9L627.9,170.9C629.4,170.9 630.6,172.1 630.6,173.6L630.6,176.1C630.6,177.6 629.4,178.8 627.9,178.8L621,178.8L621,203.7C621,207.2 621.6,207.2 623.8,207.2L628.1,207.2M677.7,170.4C683.8,170.4 691,173 691,185.3L691,211.7C691,213.2 689.8,214.4 688.3,214.4L684.7,214.4C683.2,214.4 682,213.2 682,211.7L682,185.3C682,179.3 679.3,178.5 676.4,178.5C674.4,178.5 672,179 669.1,180.1C669.4,181.6 669.6,183.3 669.6,185.2L669.6,211.8C669.6,213.3 668.5,214.5 667.1,214.5L663.1,214.5C661.7,214.5 660.6,213.3 660.6,211.8L660.6,185.2C660.6,178.9 658.9,178.6 656,178.6C653.6,178.6 650.4,179.9 648.1,181.1L648.1,211.9C648.1,213.4 647,214.6 645.6,214.6L641.6,214.6C640.2,214.6 639.1,213.4 639.1,211.9L639.1,173.8C639.1,172.3 640.3,171.1 641.7,171.1L645.4,171.1C646.7,171.1 647.7,172 647.9,173.2C651.2,171.4 654.5,170.5 657.7,170.5C661,170.5 663.5,171.4 665.5,173.3C669.7,171.4 674,170.4 677.7,170.4M733.7,171C735.1,171 736.3,172.2 736.3,173.7L736.3,211.8C736.3,213.3 735.2,214.5 733.7,214.5L730,214.5C728.7,214.5 727.7,213.6 727.4,212.4C723.6,214.3 720.5,215.1 716.7,215.1C710.2,215.1 702.5,212.2 702.5,198.4L702.5,173.8C702.5,172.3 703.7,171.1 705.2,171.1L708.8,171.1C710.3,171.1 711.5,172.3 711.5,173.8L711.5,198.4C711.5,205.7 713.9,207.1 718.5,207.1C721,207.1 724,206.3 727.4,204.6L727.4,173.8C727.4,172.3 728.6,171.1 730.1,171.1L733.7,171M767,170.4C776.4,170.4 781.6,176.3 781.6,187.1L781.6,211.7C781.6,213.2 780.4,214.4 778.9,214.4L775.3,214.4C773.8,214.4 772.6,213.2 772.6,211.7L772.6,187.1C772.6,179.5 769.3,178.5 765.8,178.5C763.8,178.5 759.8,179 756.7,180.2L756.7,211.7C756.7,213.1 755.4,214.4 754,214.4L750.3,214.4C748.9,214.4 747.7,213.2 747.7,211.7L747.7,158.5C747.7,157 748.8,155.8 750.3,155.8L754,155.8C755.5,155.8 756.6,157 756.6,158.5L756.6,172.1C760.5,170.9 764.5,170.4 767,170.4M800.3,155.9C801.7,155.9 802.8,157 802.8,158.5L802.8,211.7C802.8,213.2 801.7,214.4 800.3,214.4L796.4,214.4C795,214.4 793.9,213.2 793.9,211.7L793.9,158.5C793.9,157 795,155.9 796.4,155.9L800.3,155.9M836.5,207.3C839,207.3 839.3,208.9 839.3,209.5L839.3,212.1C839.3,212.7 839.1,214.2 836.9,214.5C835.4,214.7 833.4,214.9 831.9,214.9C824.9,214.9 820.6,213 820.6,203.7L820.6,178.7L814.4,178C812.9,177.9 811.9,176.8 811.9,175.5L811.9,173.5C811.9,172.1 813,171 814.5,171L820.5,171L820.5,164.9C820.5,163.6 821.4,162.5 822.8,162.2L826.7,161.6C828.4,161.6 829.4,162.7 829.4,164L829.4,170.9L836.2,170.9C837.7,170.9 838.9,172.1 838.9,173.6L838.9,176.1C838.9,177.6 837.7,178.8 836.2,178.8L829.3,178.8L829.3,203.7C829.3,207.2 829.9,207.2 832.1,207.2L836.5,207.2M862.8,170.4C857.5,170.4 854,170.9 851,171.4C848.7,171.8 848.4,173.3 848.4,174L848.4,176.6C848.4,178 849.4,179 850.9,179L851.4,179C854.3,178.7 857.9,178.4 862.7,178.4C867.9,178.4 869.5,180.1 869.5,185.6L869.5,187.4L865.2,187.4C851.9,187.4 846,191.5 846,200.7L846,201.6C846,210.2 850.7,214.9 859.4,214.9C862.7,214.9 866,214 869.7,212.1C869.9,213.4 871,214.4 872.4,214.4L875.8,214.4C877.3,214.4 878.5,213.2 878.5,211.7L878.5,185.6C878.6,175.6 873.3,170.4 862.8,170.4M855,200.7C855,196.4 856.4,194.6 865.2,194.6L869.5,194.6L869.5,204.7C866.1,206.5 863.4,207.2 860.6,207.2C856.9,207.2 854.9,206.3 854.9,201.6L854.9,200.7L855,200.7ZM897.2,155.9C898.6,155.9 899.7,157 899.7,158.5L899.7,211.7C899.7,213.2 898.6,214.4 897.2,214.4L893.3,214.4C891.9,214.4 890.8,213.2 890.8,211.7L890.8,158.5C890.8,157 891.9,155.9 893.3,155.9L897.2,155.9M713.9,155.9C714.7,155.9 715.5,156.6 715.5,157.4L715.5,164C715.5,164.8 714.7,165.5 713.9,165.5L708.5,165.5C707.7,165.5 706.9,164.8 706.9,164L706.9,157.4C706.9,156.6 707.7,155.9 708.5,155.9L713.9,155.9ZM721.8,157.4C721.8,156.6 722.6,155.9 723.4,155.9L728.8,155.9C729.6,155.9 730.4,156.6 730.4,157.4L730.4,164C730.4,164.8 729.6,165.5 728.8,165.5L723.4,165.5C722.6,165.5 721.8,164.8 721.8,164L721.8,157.4M499.2,285.2C501.3,293.4 490.7,299.7 487.1,301.2C365.7,354.4 301.5,284.1 301.5,210.3C301.5,152.1 345.7,104.8 400.9,103.3C405.6,103.3 451.5,103.8 476.2,140.2C509.4,189.1 476,236 470,239.5C470.1,239.7 492.2,258.3 499.2,285.2" style="fill:rgb(65,21,0);fill-rule:nonzero;"/>
    <path d="M460.7,249.2C449.9,254.4 448.9,255.6 449.4,257.7C453.8,277 451.9,292.8 450.1,300.3C448.6,306.7 480.9,291.2 480.9,291.2C480.9,291.2 487.7,289 485.3,281.4C479.9,264.1 465.3,247 460.7,249.2" style="fill:rgb(255,237,0);fill-rule:nonzero;"/>
    <path d="M439.9,259.8C438.7,257.1 434.9,257.4 434.9,257.4C434.9,257.4 414.6,259.4 413.6,264.8C410.5,280.7 401.5,292.8 395.6,299.9C390.8,305.7 394,308.3 395.4,308.4C417.2,310.6 436.9,307.4 439.1,302.8C447,285.6 440.5,261 439.9,259.8" style="fill:rgb(255,237,0);fill-rule:nonzero;"/>
    <path d="M403.5,262.5C404,259.5 401.3,258.6 401.3,258.6C401.3,258.6 386.7,250.8 382.4,254.2C380.1,256.4 375.6,259.7 370.7,262.5C362.2,267.2 351.9,271.7 343.3,274.4C336.3,276.6 340.4,280.6 341.3,281.7C350.2,292.9 372.3,306.8 378.4,302.3C388,295.1 395.2,284.5 398.9,275.4C401.8,268.9 403.2,263.8 403.5,262.5" style="fill:rgb(255,221,0);fill-rule:nonzero;"/>
    <path d="M329.9,263.6C341.6,265.2 363.1,258.7 374.2,249.5C376.4,247.6 373.6,244.1 373.6,244.1C373.6,244.1 366,229.4 360.7,229.5C357.6,229.9 352.1,229.9 346.6,229.1C337.1,227.8 326.1,225.6 317.8,222.4C306.6,218.1 321.3,262.4 329.9,263.6" style="fill:rgb(255,221,0);fill-rule:nonzero;"/>
    <path d="M323.8,216.7C326.1,217.6 328.4,218.3 330.7,218.9C335.6,220.1 340.5,220.6 344.7,220.7C351.3,221.2 356.1,220.6 357.3,220.3C360,219.7 359.8,217 359.8,217C359.8,217 361,201.2 356.6,198.6C356.6,198.6 356.5,198.6 356.5,198.5C353.8,197.2 349.5,194.4 345.5,191C343.8,189.6 342.1,188.1 340.4,186.5C335,181.5 329.8,176 325.8,170.9C325,169.9 323.3,167.8 321.9,168.8C320.8,169.6 317.7,177.6 316,185.7C313.8,196.3 312.8,210.2 315,211.9C317.5,213.8 320.6,215.4 323.8,216.7" style="fill:rgb(255,204,0);fill-rule:nonzero;"/>
    <path d="M328.6,160.9C337.1,177.3 357.9,188.4 358.6,188.6C361.1,189.5 362.5,187.9 363.1,187.1C365.9,183.4 371.5,177.4 368.1,169.6C365.3,163.2 359.1,144.1 357.6,134.5C356.6,128.2 351.1,132.1 351.1,132.1C351.1,132.1 324.7,152.2 329,161.6C329,161.7 328.6,160.9 328.6,160.9" style="fill:rgb(255,204,0);fill-rule:nonzero;"/>
    <path d="M365.9,124.4C363.7,142.1 374.3,162.6 374.7,163.1C376.2,165.2 378.1,164.8 379,164.5C383.3,163.1 391.4,162.3 392.8,153.4C393.9,146.7 399.6,128.3 403.7,119.8C406.4,114.2 399.8,114.3 399.8,114.3C399.8,114.3 367.5,115.4 365.8,125.2L365.9,124.4" style="fill:rgb(251,186,0);fill-rule:nonzero;"/>
    <path d="M415.3,118.5C404.4,131.6 402.5,153 402.5,153.6C402.6,156 404.9,156.8 405.8,157C410,158 417.7,159.5 422.1,154.5C426.4,149.7 440.5,137.7 448.1,132.9C453.1,129.8 447.8,126.6 447.8,126.6C447.8,126.6 421.3,112 414.8,119C414.8,119.1 415.3,118.5 415.3,118.5" style="fill:rgb(251,186,0);fill-rule:nonzero;"/>
    <path d="M457.4,139.5C443,143.4 430.7,157.9 430.4,158.3C429.2,160.1 430.5,161.9 431,162.4C433.5,165.3 438.1,170.3 443.8,169C449.3,167.7 465.4,166.4 473.2,166.8C478.4,167.1 476.2,162.1 476.2,162.1C476.2,162.1 465,138 456.8,139.7C456.8,139.7 457.5,139.5 457.4,139.5" style="fill:rgb(247,166,0);fill-rule:nonzero;"/>
    <path d="M475.8,175.5C463,171.4 446.6,176.2 446.2,176.4C444.5,177.2 444.5,179.1 444.6,179.8C445.1,183.2 446.2,189.3 451.1,191.1C455.9,192.9 468.8,199.7 474.5,203.9C478.3,206.7 479,201.8 479,201.8C479,201.8 482.2,178 475.2,175.3C475.2,175.4 475.8,175.6 475.8,175.5" style="fill:rgb(247,166,0);fill-rule:nonzero;"/>
    <path d="M471.8,215.6C465.4,204.5 450.7,197.4 450.3,197.2C448.6,196.6 447.4,198 447,198.6C445.1,201.3 442,206.3 444.3,210.7C446.6,215 451.2,228.1 452.5,234.7C453.4,239.1 457,236.2 457,236.2C457,236.2 474.6,221.5 471.4,215.1C471.5,215.1 471.8,215.6 471.8,215.6" style="fill:rgb(243,146,0);fill-rule:nonzero;"/>
    <path d="M444.2,240.3C445.3,228.7 438.2,215.9 438,215.6C437,214.3 435.4,214.7 434.9,214.9C432.1,215.9 427.2,218 426.6,222.5C426,226.9 422.6,239 420.1,244.6C418.5,248.3 422.7,248 422.7,248C422.7,248 443.3,246.2 444.3,239.8C444.2,239.7 444.2,240.3 444.2,240.3" style="fill:rgb(243,146,0);fill-rule:nonzero;"/>
    <path d="M411.3,246C418.2,237.9 419.6,224.6 419.5,224.3C419.5,222.8 418,222.3 417.5,222.1C414.9,221.4 410.1,220.4 407.4,223.5C404.7,226.5 395.8,233.7 391,236.6C387.9,238.5 391.1,240.5 391.1,240.5C391.1,240.5 407.4,249.9 411.5,245.7C411.6,245.6 411.3,246 411.3,246" style="fill:rgb(239,125,0);fill-rule:nonzero;"/>
    <path d="M382.3,229.9C392.7,229.1 403,221 403.2,220.7C404.2,219.6 403.6,218.3 403.3,217.8C401.9,215.6 399.3,211.6 395.2,211.7C391.2,211.8 379.9,210.7 374.5,209.3C371,208.4 371.9,212.1 371.9,212.1C371.9,212.1 376.9,230 382.7,229.8C382.8,229.9 382.3,229.9 382.3,229.9" style="fill:rgb(236,102,8);fill-rule:nonzero;"/>
    <path d="M374.3,199.7C382.3,205.8 395.2,206.3 395.6,206.3C397,206.2 397.5,204.8 397.6,204.3C398.1,201.8 398.9,197.2 395.9,194.8C392.9,192.4 385.5,184.4 382.5,180C380.5,177.1 378.7,180.4 378.7,180.4C378.7,180.4 370.3,196.5 374.6,200.1C374.7,200 374.3,199.7 374.3,199.7" style="fill:rgb(232,78,15);fill-rule:nonzero;"/>
    <path d="M389.3,172.8C390.1,180.9 396.8,188.8 397,189C397.9,189.8 398.9,189.3 399.3,189.1C401.1,188 404.2,186 404,182.8C403.8,179.7 404.5,170.9 405.5,166.8C406.1,164 403.3,164.8 403.3,164.8C403.3,164.8 389.3,168.7 389.4,173.2L389.3,172.8" style="fill:rgb(232,78,15);fill-rule:nonzero;"/>
    <path d="M428.8,179.7C430.3,178.5 429.7,175.8 427.9,173.2C427,171.9 425.9,170.6 424.7,169.5C423.2,168.2 421.6,167.1 419.9,166.6C417.1,165.7 414.2,166.2 412,169.3C411.1,170.5 410.5,172 410.1,173.4C408.9,177.3 409.8,179.7 411.7,181.1C414.2,182.9 418.4,182.9 422.4,182C424.7,181.5 427,180.7 428.8,179.7" style="fill:rgb(232,78,15);fill-rule:nonzero;"/>
    <path d="M437.9,198.1C438.9,196.5 439.1,193.5 438.6,190.7C438.1,188.6 437.3,186.5 435.9,185.2C435.2,184.4 434.2,183.9 433.2,183.7C431.9,183.5 430.3,183.9 428.5,185.1C427.6,185.7 426.8,186.3 426.3,186.8C424.7,188.3 424.4,189.4 424.8,190.6C425.4,192.1 427.5,193.5 429.8,195.4C430.5,196 431.2,196.6 432,197.4C433.6,198.9 434.9,199.5 435.9,199.5C436.7,199.4 437.4,198.9 437.9,198.1" style="fill:rgb(232,78,15);fill-rule:nonzero;"/>
    <path d="M429.4,209.2C439.3,202.1 420.7,192.4 422.1,201.1C423.6,206.5 422.4,214.2 429.4,209.2" style="fill:rgb(232,78,15);fill-rule:nonzero;"/>
    <path d="M410.6,212.8C409.9,215.2 419.3,217.7 419.3,207.9C419.3,198.1 410.2,208.8 410.6,212.8" style="fill:rgb(230,51,18);fill-rule:nonzero;"/>
    <path d="M402.8,201C399.2,205.3 407.3,211.3 409.4,206.4C410.7,202.6 406.8,197.6 402.8,201" style="fill:rgb(230,51,18);fill-rule:nonzero;"/>
    <path d="M410,187C402.2,190.4 409.1,204 415.3,198.6C419.5,194.4 417.7,185.1 410,187" style="fill:rgb(227,6,19);fill-rule:nonzero;"/>
</svg>
