<?xml version="1.0" encoding="UTF-8" standalone="no"?>
<!DOCTYPE svg PUBLIC "-//W3C//DTD SVG 1.1//EN" "http://www.w3.org/Graphics/SVG/1.1/DTD/svg11.dtd">
<svg width="100%" height="100%" viewBox="0 0 500 100" version="1.1" xmlns="http://www.w3.org/2000/svg" xmlns:xlink="http://www.w3.org/1999/xlink" xml:space="preserve" xmlns:serif="http://www.serif.com/" style="fill-rule:evenodd;clip-rule:evenodd;stroke-linejoin:round;stroke-miterlimit:2;">
    <g transform="matrix(0.73849,0,0,0.73849,-4.0298,9.38936)">
        <g transform="matrix(63.0526,0,0,63.0526,34.6796,71.3395)">
            <path d="M0.335,-0.461C0.29,-0.46 0.25,-0.447 0.216,-0.423C0.181,-0.399 0.157,-0.366 0.143,-0.324L0.143,-0L0.075,-0L0.075,-0.521L0.139,-0.521L0.139,-0.396C0.157,-0.433 0.181,-0.462 0.211,-0.485C0.24,-0.508 0.272,-0.52 0.305,-0.523C0.312,-0.524 0.318,-0.524 0.323,-0.524C0.328,-0.524 0.332,-0.524 0.335,-0.523L0.335,-0.461Z" style="fill-rule:nonzero;"/>
        </g>
        <g transform="matrix(63.0526,0,0,63.0526,56.811,71.3395)">
            <path d="M0.075,-0L0.075,-0.521L0.143,-0.521L0.143,-0L0.075,-0ZM0.075,-0.63L0.075,-0.73L0.143,-0.73L0.143,-0.63L0.075,-0.63Z" style="fill-rule:nonzero;"/>
        </g>
        <g transform="matrix(63.0526,0,0,63.0526,70.5565,71.3395)">
            <path d="M0.301,0.01C0.263,0.01 0.228,0.003 0.197,-0.012C0.165,-0.026 0.137,-0.046 0.114,-0.071C0.09,-0.096 0.071,-0.125 0.059,-0.158C0.046,-0.191 0.039,-0.225 0.039,-0.262C0.039,-0.311 0.05,-0.356 0.072,-0.397C0.094,-0.438 0.125,-0.47 0.164,-0.494C0.203,-0.518 0.249,-0.53 0.3,-0.53C0.349,-0.53 0.392,-0.519 0.429,-0.497C0.466,-0.474 0.494,-0.444 0.512,-0.406L0.446,-0.385C0.431,-0.412 0.411,-0.432 0.385,-0.448C0.358,-0.463 0.329,-0.47 0.297,-0.47C0.262,-0.47 0.231,-0.461 0.202,-0.443C0.173,-0.425 0.151,-0.4 0.134,-0.369C0.117,-0.338 0.108,-0.302 0.108,-0.262C0.108,-0.223 0.117,-0.187 0.134,-0.155C0.151,-0.123 0.174,-0.097 0.203,-0.079C0.232,-0.059 0.263,-0.05 0.298,-0.05C0.321,-0.05 0.343,-0.054 0.364,-0.062C0.385,-0.07 0.403,-0.081 0.419,-0.095C0.434,-0.108 0.445,-0.123 0.45,-0.139L0.517,-0.119C0.508,-0.094 0.492,-0.072 0.471,-0.053C0.449,-0.033 0.424,-0.017 0.395,-0.007C0.366,0.005 0.334,0.01 0.301,0.01Z" style="fill-rule:nonzero;"/>
        </g>
        <g transform="matrix(63.0526,0,0,63.0526,105.172,71.3395)">
            <path d="M0.513,-0L0.445,-0L0.445,-0.291C0.445,-0.35 0.435,-0.394 0.414,-0.424C0.393,-0.453 0.364,-0.468 0.325,-0.468C0.3,-0.468 0.275,-0.462 0.25,-0.449C0.225,-0.436 0.202,-0.418 0.184,-0.396C0.165,-0.373 0.151,-0.348 0.143,-0.319L0.143,-0L0.075,-0L0.075,-0.73L0.143,-0.73L0.143,-0.403C0.164,-0.442 0.193,-0.472 0.23,-0.496C0.267,-0.519 0.306,-0.53 0.348,-0.53C0.378,-0.53 0.404,-0.525 0.425,-0.514C0.446,-0.503 0.463,-0.488 0.476,-0.468C0.489,-0.447 0.498,-0.424 0.504,-0.397C0.51,-0.37 0.513,-0.339 0.513,-0.305L0.513,-0Z" style="fill-rule:nonzero;"/>
        </g>
        <g transform="matrix(63.0526,0,0,63.0526,141.932,71.3395)">
            <path d="M0.033,-0.15C0.033,-0.183 0.042,-0.211 0.061,-0.235C0.08,-0.258 0.106,-0.277 0.139,-0.29C0.171,-0.303 0.21,-0.309 0.253,-0.309C0.278,-0.309 0.305,-0.307 0.332,-0.303C0.359,-0.299 0.384,-0.293 0.405,-0.285L0.405,-0.329C0.405,-0.373 0.392,-0.408 0.366,-0.434C0.34,-0.46 0.304,-0.473 0.258,-0.473C0.23,-0.473 0.203,-0.468 0.176,-0.458C0.149,-0.447 0.12,-0.432 0.091,-0.412L0.065,-0.46C0.099,-0.483 0.132,-0.501 0.165,-0.513C0.198,-0.524 0.231,-0.53 0.265,-0.53C0.329,-0.53 0.38,-0.512 0.417,-0.475C0.454,-0.438 0.473,-0.388 0.473,-0.323L0.473,-0.082C0.473,-0.073 0.475,-0.066 0.479,-0.062C0.483,-0.057 0.489,-0.055 0.498,-0.054L0.498,-0C0.491,0.001 0.484,0.001 0.479,0.002C0.474,0.003 0.47,0.003 0.467,0.002C0.45,0.001 0.438,-0.004 0.429,-0.014C0.42,-0.024 0.416,-0.035 0.415,-0.046L0.414,-0.084C0.391,-0.054 0.36,-0.031 0.323,-0.015C0.286,0.002 0.248,0.01 0.209,0.01C0.176,0.01 0.146,0.003 0.119,-0.012C0.092,-0.026 0.07,-0.045 0.056,-0.07C0.041,-0.094 0.033,-0.121 0.033,-0.15ZM0.382,-0.11C0.389,-0.119 0.395,-0.128 0.399,-0.137C0.403,-0.146 0.405,-0.153 0.405,-0.16L0.405,-0.236C0.382,-0.245 0.359,-0.251 0.335,-0.256C0.31,-0.261 0.286,-0.263 0.261,-0.263C0.212,-0.263 0.173,-0.253 0.143,-0.234C0.113,-0.215 0.098,-0.188 0.098,-0.155C0.098,-0.136 0.103,-0.118 0.113,-0.101C0.123,-0.084 0.138,-0.069 0.157,-0.059C0.176,-0.048 0.199,-0.042 0.225,-0.042C0.258,-0.042 0.288,-0.048 0.317,-0.061C0.345,-0.074 0.367,-0.09 0.382,-0.11Z" style="fill-rule:nonzero;"/>
        </g>
        <g transform="matrix(63.0526,0,0,63.0526,176.296,71.3395)">
            <path d="M0.335,-0.461C0.29,-0.46 0.25,-0.447 0.216,-0.423C0.181,-0.399 0.157,-0.366 0.143,-0.324L0.143,-0L0.075,-0L0.075,-0.521L0.139,-0.521L0.139,-0.396C0.157,-0.433 0.181,-0.462 0.211,-0.485C0.24,-0.508 0.272,-0.52 0.305,-0.523C0.312,-0.524 0.318,-0.524 0.323,-0.524C0.328,-0.524 0.332,-0.524 0.335,-0.523L0.335,-0.461Z" style="fill-rule:nonzero;"/>
        </g>
        <g transform="matrix(63.0526,0,0,63.0526,197.544,71.3395)">
            <path d="M0.04,-0.259C0.04,-0.308 0.05,-0.354 0.071,-0.395C0.091,-0.436 0.119,-0.468 0.155,-0.493C0.191,-0.518 0.232,-0.53 0.278,-0.53C0.321,-0.53 0.36,-0.519 0.395,-0.496C0.429,-0.472 0.456,-0.445 0.475,-0.412L0.475,-0.73L0.543,-0.73L0.543,-0.082C0.543,-0.073 0.545,-0.066 0.549,-0.062C0.553,-0.057 0.559,-0.055 0.567,-0.054L0.567,-0C0.554,0.002 0.543,0.003 0.536,0.002C0.522,0.001 0.51,-0.004 0.499,-0.015C0.488,-0.026 0.483,-0.037 0.483,-0.05L0.483,-0.101C0.462,-0.067 0.434,-0.04 0.399,-0.02C0.364,0 0.327,0.01 0.289,0.01C0.253,0.01 0.22,0.003 0.19,-0.012C0.159,-0.027 0.133,-0.047 0.111,-0.072C0.088,-0.097 0.071,-0.126 0.059,-0.159C0.046,-0.191 0.04,-0.224 0.04,-0.259ZM0.475,-0.179L0.475,-0.34C0.466,-0.364 0.452,-0.386 0.433,-0.406C0.414,-0.425 0.392,-0.441 0.368,-0.453C0.343,-0.464 0.319,-0.47 0.295,-0.47C0.267,-0.47 0.242,-0.464 0.219,-0.453C0.196,-0.441 0.177,-0.425 0.161,-0.405C0.144,-0.385 0.132,-0.362 0.123,-0.337C0.114,-0.312 0.11,-0.286 0.11,-0.259C0.11,-0.231 0.115,-0.204 0.125,-0.179C0.134,-0.154 0.148,-0.131 0.166,-0.112C0.184,-0.092 0.205,-0.077 0.228,-0.066C0.251,-0.055 0.277,-0.05 0.304,-0.05C0.321,-0.05 0.339,-0.053 0.358,-0.06C0.377,-0.067 0.395,-0.076 0.412,-0.088C0.429,-0.099 0.443,-0.113 0.454,-0.129C0.465,-0.145 0.472,-0.162 0.475,-0.179Z" style="fill-rule:nonzero;"/>
        </g>
        <g transform="matrix(63.0526,0,0,63.0526,236.763,71.3395)">
            <rect x="0.065" y="-0.098" width="0.059" height="0.098" style="fill-rule:nonzero;"/>
        </g>
        <g transform="matrix(63.0526,0,0,63.0526,248.68,71.3395)">
            <path d="M0.513,-0L0.445,-0L0.445,-0.291C0.445,-0.352 0.436,-0.397 0.418,-0.426C0.4,-0.454 0.372,-0.468 0.333,-0.468C0.306,-0.468 0.28,-0.462 0.254,-0.449C0.228,-0.436 0.205,-0.418 0.186,-0.396C0.166,-0.373 0.152,-0.348 0.143,-0.319L0.143,-0L0.075,-0L0.075,-0.521L0.137,-0.521L0.137,-0.403C0.151,-0.428 0.169,-0.451 0.192,-0.47C0.215,-0.489 0.24,-0.503 0.269,-0.514C0.298,-0.525 0.327,-0.53 0.358,-0.53C0.387,-0.53 0.411,-0.525 0.431,-0.514C0.451,-0.503 0.467,-0.488 0.479,-0.469C0.491,-0.449 0.5,-0.425 0.505,-0.398C0.51,-0.37 0.513,-0.339 0.513,-0.305L0.513,-0Z" style="fill-rule:nonzero;"/>
        </g>
        <g transform="matrix(63.0526,0,0,63.0526,285.44,71.3395)">
            <path d="M0.075,-0L0.075,-0.521L0.143,-0.521L0.143,-0L0.075,-0ZM0.075,-0.63L0.075,-0.73L0.143,-0.73L0.143,-0.63L0.075,-0.63Z" style="fill-rule:nonzero;"/>
        </g>
        <g transform="matrix(63.0526,0,0,63.0526,299.185,71.3395)">
            <path d="M0.447,-0L0.254,-0.267L0.143,-0.163L0.143,-0L0.075,-0L0.075,-0.73L0.143,-0.73L0.143,-0.236L0.438,-0.52L0.513,-0.52L0.3,-0.307L0.521,-0L0.447,-0Z" style="fill-rule:nonzero;"/>
        </g>
        <g transform="matrix(63.0526,0,0,63.0526,330.901,71.3395)">
            <path d="M0.297,0.01C0.26,0.01 0.225,0.003 0.194,-0.012C0.162,-0.026 0.134,-0.046 0.112,-0.071C0.089,-0.095 0.071,-0.124 0.058,-0.157C0.045,-0.189 0.039,-0.223 0.039,-0.259C0.039,-0.296 0.045,-0.331 0.058,-0.364C0.071,-0.396 0.089,-0.425 0.112,-0.45C0.135,-0.474 0.163,-0.494 0.195,-0.509C0.226,-0.523 0.261,-0.53 0.298,-0.53C0.335,-0.53 0.37,-0.523 0.401,-0.509C0.432,-0.494 0.46,-0.474 0.483,-0.45C0.506,-0.425 0.524,-0.396 0.537,-0.364C0.55,-0.331 0.556,-0.296 0.556,-0.259C0.556,-0.223 0.55,-0.189 0.537,-0.157C0.524,-0.124 0.507,-0.095 0.484,-0.071C0.46,-0.046 0.433,-0.026 0.402,-0.012C0.37,0.003 0.335,0.01 0.297,0.01ZM0.108,-0.258C0.108,-0.219 0.117,-0.184 0.134,-0.153C0.151,-0.121 0.173,-0.096 0.202,-0.078C0.231,-0.059 0.262,-0.05 0.297,-0.05C0.332,-0.05 0.363,-0.059 0.392,-0.078C0.421,-0.097 0.444,-0.122 0.461,-0.155C0.478,-0.187 0.487,-0.222 0.487,-0.26C0.487,-0.299 0.478,-0.334 0.461,-0.366C0.444,-0.398 0.421,-0.423 0.392,-0.442C0.363,-0.461 0.332,-0.47 0.297,-0.47C0.262,-0.47 0.231,-0.46 0.203,-0.441C0.174,-0.422 0.151,-0.396 0.134,-0.365C0.117,-0.333 0.108,-0.297 0.108,-0.258Z" style="fill-rule:nonzero;"/>
        </g>
        <g transform="matrix(63.0526,0,0,63.0526,368.417,71.3395)">
            <path d="M0.078,-0.73L0.146,-0.73L0.146,-0.118C0.146,-0.092 0.151,-0.075 0.16,-0.067C0.169,-0.059 0.181,-0.055 0.194,-0.055C0.206,-0.055 0.218,-0.056 0.23,-0.059C0.242,-0.062 0.252,-0.064 0.261,-0.067L0.273,-0.012C0.26,-0.007 0.245,-0.002 0.227,0.001C0.208,0.004 0.192,0.006 0.179,0.006C0.148,0.006 0.124,-0.003 0.106,-0.021C0.087,-0.039 0.078,-0.064 0.078,-0.095L0.078,-0.73Z" style="fill-rule:nonzero;"/>
        </g>
        <g transform="matrix(63.0526,0,0,63.0526,385.567,71.3395)">
            <path d="M0.417,-0.603C0.466,-0.603 0.513,-0.594 0.557,-0.576C0.6,-0.557 0.639,-0.531 0.673,-0.498C0.706,-0.464 0.733,-0.424 0.752,-0.377C0.771,-0.33 0.781,-0.279 0.781,-0.222C0.781,-0.211 0.78,-0.195 0.779,-0.176C0.777,-0.157 0.773,-0.136 0.768,-0.114C0.763,-0.092 0.755,-0.071 0.745,-0.052C0.734,-0.032 0.72,-0.016 0.702,-0.003C0.684,0.01 0.662,0.016 0.635,0.016C0.613,0.016 0.596,0.012 0.585,0.003C0.573,-0.006 0.565,-0.017 0.561,-0.031C0.556,-0.045 0.553,-0.06 0.551,-0.076C0.533,-0.057 0.509,-0.04 0.48,-0.026C0.45,-0.012 0.417,-0.005 0.382,-0.005C0.335,-0.005 0.298,-0.018 0.272,-0.043C0.245,-0.068 0.232,-0.1 0.232,-0.139C0.232,-0.173 0.241,-0.2 0.26,-0.219C0.279,-0.238 0.302,-0.252 0.331,-0.261C0.359,-0.269 0.388,-0.273 0.417,-0.273C0.446,-0.273 0.472,-0.27 0.495,-0.265C0.517,-0.259 0.533,-0.254 0.544,-0.25C0.544,-0.282 0.541,-0.31 0.534,-0.334C0.527,-0.358 0.514,-0.377 0.496,-0.391C0.478,-0.404 0.453,-0.411 0.42,-0.411C0.394,-0.411 0.369,-0.407 0.345,-0.399C0.321,-0.39 0.299,-0.379 0.28,-0.364L0.262,-0.403C0.286,-0.419 0.312,-0.432 0.339,-0.441C0.366,-0.45 0.395,-0.455 0.426,-0.455C0.463,-0.455 0.493,-0.449 0.515,-0.437C0.536,-0.425 0.552,-0.409 0.563,-0.389C0.574,-0.368 0.581,-0.346 0.584,-0.322C0.587,-0.298 0.589,-0.274 0.589,-0.25L0.589,-0.121C0.589,-0.102 0.59,-0.084 0.593,-0.069C0.595,-0.054 0.6,-0.042 0.607,-0.034C0.614,-0.025 0.626,-0.021 0.641,-0.021C0.662,-0.021 0.679,-0.028 0.693,-0.042C0.706,-0.056 0.717,-0.074 0.725,-0.095C0.732,-0.116 0.737,-0.139 0.741,-0.162C0.744,-0.185 0.745,-0.206 0.745,-0.224C0.745,-0.273 0.737,-0.318 0.721,-0.36C0.704,-0.401 0.681,-0.438 0.651,-0.469C0.621,-0.5 0.586,-0.525 0.546,-0.543C0.506,-0.56 0.463,-0.569 0.416,-0.569C0.37,-0.569 0.327,-0.561 0.287,-0.544C0.247,-0.527 0.212,-0.504 0.181,-0.474C0.15,-0.443 0.126,-0.407 0.109,-0.366C0.092,-0.324 0.083,-0.279 0.083,-0.23C0.083,-0.183 0.091,-0.138 0.108,-0.097C0.124,-0.056 0.147,-0.019 0.177,0.012C0.206,0.043 0.241,0.068 0.281,0.086C0.321,0.103 0.364,0.112 0.411,0.112C0.439,0.112 0.465,0.109 0.49,0.102C0.515,0.094 0.539,0.085 0.564,0.074L0.577,0.106C0.55,0.119 0.523,0.129 0.495,0.136C0.466,0.143 0.438,0.146 0.41,0.146C0.36,0.146 0.313,0.137 0.27,0.118C0.226,0.099 0.187,0.073 0.154,0.04C0.121,0.006 0.095,-0.034 0.076,-0.08C0.056,-0.126 0.047,-0.176 0.047,-0.23C0.047,-0.287 0.057,-0.338 0.078,-0.384C0.098,-0.429 0.125,-0.468 0.16,-0.501C0.195,-0.534 0.234,-0.559 0.279,-0.577C0.323,-0.594 0.369,-0.603 0.417,-0.603ZM0.478,-0.07C0.497,-0.079 0.511,-0.089 0.52,-0.1C0.529,-0.111 0.536,-0.122 0.539,-0.135C0.542,-0.148 0.543,-0.16 0.543,-0.172L0.543,-0.212C0.534,-0.213 0.519,-0.217 0.497,-0.224C0.474,-0.231 0.447,-0.234 0.415,-0.234C0.392,-0.234 0.37,-0.231 0.349,-0.226C0.328,-0.221 0.311,-0.211 0.298,-0.198C0.285,-0.184 0.278,-0.165 0.278,-0.141C0.278,-0.122 0.283,-0.106 0.292,-0.092C0.301,-0.078 0.314,-0.067 0.33,-0.06C0.346,-0.052 0.364,-0.048 0.385,-0.048C0.401,-0.048 0.417,-0.05 0.434,-0.055C0.451,-0.059 0.465,-0.064 0.478,-0.07Z" style="fill-rule:nonzero;"/>
        </g>
        <g transform="matrix(63.0526,0,0,63.0526,438.342,71.3395)">
            <path d="M0.284,0.007C0.249,0.007 0.216,-0 0.186,-0.015C0.156,-0.03 0.13,-0.049 0.109,-0.075C0.087,-0.099 0.07,-0.128 0.058,-0.16C0.046,-0.192 0.04,-0.225 0.04,-0.259C0.04,-0.296 0.046,-0.33 0.058,-0.363C0.069,-0.395 0.086,-0.424 0.108,-0.449C0.129,-0.474 0.155,-0.494 0.184,-0.509C0.213,-0.523 0.246,-0.53 0.282,-0.53C0.327,-0.53 0.366,-0.519 0.399,-0.496C0.432,-0.473 0.459,-0.445 0.482,-0.412L0.482,-0.521L0.543,-0.521L0.543,0.002C0.543,0.05 0.532,0.09 0.509,0.124C0.486,0.157 0.455,0.181 0.416,0.198C0.377,0.215 0.334,0.223 0.288,0.223C0.229,0.223 0.181,0.212 0.144,0.191C0.107,0.17 0.077,0.141 0.054,0.105L0.096,0.072C0.117,0.105 0.144,0.129 0.179,0.145C0.213,0.161 0.249,0.169 0.288,0.169C0.322,0.169 0.353,0.163 0.382,0.151C0.41,0.138 0.432,0.12 0.45,0.095C0.467,0.07 0.475,0.039 0.475,0.002L0.475,-0.101C0.455,-0.068 0.428,-0.042 0.393,-0.023C0.358,-0.003 0.322,0.007 0.284,0.007ZM0.303,-0.05C0.324,-0.05 0.343,-0.054 0.363,-0.061C0.382,-0.068 0.399,-0.078 0.415,-0.091C0.431,-0.103 0.444,-0.117 0.455,-0.132C0.466,-0.147 0.472,-0.163 0.475,-0.179L0.475,-0.34C0.465,-0.365 0.451,-0.388 0.432,-0.408C0.413,-0.427 0.392,-0.443 0.369,-0.454C0.345,-0.464 0.32,-0.47 0.295,-0.47C0.266,-0.47 0.24,-0.464 0.217,-0.452C0.194,-0.439 0.174,-0.423 0.159,-0.403C0.143,-0.382 0.131,-0.359 0.122,-0.334C0.113,-0.309 0.109,-0.283 0.109,-0.258C0.109,-0.23 0.114,-0.204 0.124,-0.179C0.134,-0.154 0.148,-0.131 0.166,-0.112C0.183,-0.092 0.204,-0.077 0.228,-0.066C0.251,-0.055 0.276,-0.05 0.303,-0.05Z" style="fill-rule:nonzero;"/>
        </g>
        <g transform="matrix(63.0526,0,0,63.0526,477.309,71.3395)">
            <path d="M0.85,-0L0.782,-0L0.782,-0.291C0.782,-0.352 0.772,-0.396 0.753,-0.425C0.734,-0.454 0.705,-0.468 0.667,-0.468C0.628,-0.468 0.592,-0.454 0.562,-0.426C0.531,-0.398 0.509,-0.362 0.496,-0.318L0.496,-0L0.428,-0L0.428,-0.291C0.428,-0.352 0.419,-0.397 0.4,-0.426C0.381,-0.454 0.353,-0.468 0.314,-0.468C0.275,-0.468 0.24,-0.454 0.209,-0.427C0.178,-0.4 0.156,-0.364 0.143,-0.319L0.143,-0L0.075,-0L0.075,-0.521L0.137,-0.521L0.137,-0.403C0.159,-0.444 0.187,-0.475 0.222,-0.497C0.256,-0.519 0.294,-0.53 0.336,-0.53C0.379,-0.53 0.414,-0.518 0.441,-0.493C0.468,-0.468 0.484,-0.436 0.49,-0.396C0.514,-0.44 0.543,-0.473 0.577,-0.496C0.61,-0.519 0.648,-0.53 0.691,-0.53C0.72,-0.53 0.745,-0.525 0.766,-0.514C0.786,-0.503 0.802,-0.488 0.815,-0.469C0.827,-0.449 0.836,-0.425 0.842,-0.398C0.847,-0.37 0.85,-0.339 0.85,-0.305L0.85,-0Z" style="fill-rule:nonzero;"/>
        </g>
        <g transform="matrix(63.0526,0,0,63.0526,535.254,71.3395)">
            <path d="M0.091,-0.521L0.244,-0.317L0.252,-0.302L0.26,-0.317L0.412,-0.521L0.489,-0.521L0.291,-0.259L0.489,-0L0.412,-0L0.26,-0.203L0.252,-0.217L0.244,-0.203L0.092,-0L0.015,-0L0.212,-0.259L0.015,-0.521L0.091,-0.521Z" style="fill-rule:nonzero;"/>
        </g>
        <g transform="matrix(63.0526,0,0,63.0526,567.033,71.3395)">
            <rect x="0.065" y="-0.098" width="0.059" height="0.098" style="fill-rule:nonzero;"/>
        </g>
        <g transform="matrix(63.0526,0,0,63.0526,578.95,71.3395)">
            <path d="M0.04,-0.259C0.04,-0.308 0.05,-0.354 0.071,-0.395C0.091,-0.436 0.119,-0.468 0.155,-0.493C0.191,-0.518 0.232,-0.53 0.278,-0.53C0.321,-0.53 0.36,-0.519 0.395,-0.496C0.429,-0.472 0.456,-0.445 0.475,-0.412L0.475,-0.73L0.543,-0.73L0.543,-0.082C0.543,-0.073 0.545,-0.066 0.549,-0.062C0.553,-0.057 0.559,-0.055 0.567,-0.054L0.567,-0C0.554,0.002 0.543,0.003 0.536,0.002C0.522,0.001 0.51,-0.004 0.499,-0.015C0.488,-0.026 0.483,-0.037 0.483,-0.05L0.483,-0.101C0.462,-0.067 0.434,-0.04 0.399,-0.02C0.364,0 0.327,0.01 0.289,0.01C0.253,0.01 0.22,0.003 0.19,-0.012C0.159,-0.027 0.133,-0.047 0.111,-0.072C0.088,-0.097 0.071,-0.126 0.059,-0.159C0.046,-0.191 0.04,-0.224 0.04,-0.259ZM0.475,-0.179L0.475,-0.34C0.466,-0.364 0.452,-0.386 0.433,-0.406C0.414,-0.425 0.392,-0.441 0.368,-0.453C0.343,-0.464 0.319,-0.47 0.295,-0.47C0.267,-0.47 0.242,-0.464 0.219,-0.453C0.196,-0.441 0.177,-0.425 0.161,-0.405C0.144,-0.385 0.132,-0.362 0.123,-0.337C0.114,-0.312 0.11,-0.286 0.11,-0.259C0.11,-0.231 0.115,-0.204 0.125,-0.179C0.134,-0.154 0.148,-0.131 0.166,-0.112C0.184,-0.092 0.205,-0.077 0.228,-0.066C0.251,-0.055 0.277,-0.05 0.304,-0.05C0.321,-0.05 0.339,-0.053 0.358,-0.06C0.377,-0.067 0.395,-0.076 0.412,-0.088C0.429,-0.099 0.443,-0.113 0.454,-0.129C0.465,-0.145 0.472,-0.162 0.475,-0.179Z" style="fill-rule:nonzero;"/>
        </g>
        <g transform="matrix(63.0526,0,0,63.0526,618.169,71.3395)">
            <path d="M0.3,0.01C0.263,0.01 0.228,0.003 0.196,-0.012C0.164,-0.026 0.136,-0.046 0.113,-0.071C0.09,-0.095 0.071,-0.124 0.059,-0.157C0.046,-0.19 0.039,-0.225 0.039,-0.262C0.039,-0.311 0.05,-0.355 0.073,-0.396C0.095,-0.437 0.126,-0.469 0.165,-0.494C0.204,-0.518 0.249,-0.53 0.299,-0.53C0.35,-0.53 0.395,-0.518 0.434,-0.493C0.472,-0.468 0.502,-0.436 0.524,-0.396C0.546,-0.355 0.557,-0.311 0.557,-0.263L0.557,-0.248C0.557,-0.243 0.557,-0.239 0.556,-0.236L0.11,-0.236C0.113,-0.199 0.124,-0.166 0.142,-0.137C0.159,-0.108 0.182,-0.085 0.211,-0.068C0.239,-0.051 0.27,-0.042 0.303,-0.042C0.337,-0.042 0.369,-0.051 0.4,-0.068C0.43,-0.085 0.451,-0.108 0.463,-0.136L0.522,-0.12C0.511,-0.095 0.495,-0.073 0.473,-0.053C0.451,-0.033 0.425,-0.017 0.396,-0.007C0.366,0.005 0.334,0.01 0.3,0.01ZM0.108,-0.285L0.493,-0.285C0.49,-0.323 0.48,-0.356 0.463,-0.385C0.445,-0.414 0.422,-0.436 0.394,-0.453C0.365,-0.469 0.334,-0.477 0.3,-0.477C0.266,-0.477 0.235,-0.469 0.207,-0.453C0.179,-0.436 0.156,-0.413 0.139,-0.385C0.121,-0.356 0.111,-0.322 0.108,-0.285Z" style="fill-rule:nonzero;"/>
        </g>
    </g>
</svg>
